Coordinates
version=1
nRows=5
nColumns=107
inDegrees=yes

Units are S.I. units (second, meters, Newtons, ...)
If the header above contains a line with 'inDegrees', this indicates whether rotational values are in degrees (yes) or radians (no).

endheader
time	sternoclavicular_r2	sternoclavicular_r3	unrotscap_r3	unrotscap_r2	acromioclavicular_r2	acromioclavicular_r3	acromioclavicular_r1	unrothum_r1	unrothum_r3	unrothum_r2	elv_angle	shoulder_elv	shoulder1_r2	shoulder_rot	elbow_flexion	pro_sup	deviation	flexion	proximal_distal_r1	proximal_distal_r3	cmc_flexion	cmc_abduction	mp_flexion	ip_flexion	mcp2_flexion	mcp2_abduction	pm2_flexion	md2_flexion	mcp3_flexion	mcp3_abduction	pm3_flexion	md3_flexion	mcp4_flexion	mcp4_abduction	pm4_flexion	md4_flexion	mcp5_flexion	mcp5_abduction	pm5_flexion	md5_flexion	bicpt_tx	bicpt_ty	bicpt_tz	bicpt2_tx	bicpt2_ty	bicpt2_tz	ptpt_tx	ptpt_ty	ptpt_tz	FCUpt_tx	FCUpt_ty	FCUpt_tz	EDCpt_tx	EDCpt_ty	EDCpt_tz	APLpt_tx	APLpt_ty	APLpt_tz	FPLpt_tx	FPLpt_ty	FPLpt_tz	FPLpt2_tx	FPLpt2_ty	FPLpt2_tz	PEC1pt2_tx	PEC1pt2_ty	PEC1pt2_tz	PEC1pt3_tx	PEC1pt3_ty	PEC1pt3_tz	PEC2pt2_tx	PEC2pt2_ty	PEC2pt2_tz	PEC2pt3_tx	PEC2pt3_ty	PEC2pt3_tz	PEC3pt2_tx	PEC3pt2_ty	PEC3pt2_tz	PEC3pt3_tx	PEC3pt3_ty	PEC3pt3_tz	DELT2pt2a_tx	DELT2pt2a_ty	DELT2pt2a_tz	DELT2pt2_tx	DELT2pt2_ty	DELT2pt2_tz	LAT1pt2_tx	LAT1pt2_ty	LAT1pt2_tz	LAT1pt3_tx	LAT1pt3_ty	LAT1pt3_tz	LAT2pt2_tx	LAT2pt2_ty	LAT2pt2_tz	LAT2pt3_tx	LAT2pt3_ty	LAT2pt3_tz	LAT3pt2_tx	LAT3pt2_ty	LAT3pt2_tz	LAT3pt3_tx	LAT3pt3_ty	LAT3pt3_tz
      1.13333333	     -0.31717247	      0.13433929	     -0.13433929	      0.31717247	     -0.06422097	      0.51901132	      0.23329202	     -0.23329202	     -0.51901132	      0.06422097	     99.50164708	     75.09340197	     -1.73663135	    -26.94390943	     29.78324129	     15.55756848	      0.00679014	     -1.09516486	      0.00917752	     -0.54758243	    -10.06858655	      0.82997822	    -22.21156422	    -18.45738800	     37.39687739	     13.91467068	      6.89663545	    -34.57874497	     58.09153553	      6.16499242	     85.70264678	     62.43399759	     53.15823710	     -8.81769564	     87.94764607	     39.73527490	     -8.03852166	    -13.32953373	    -13.04176463	      5.03357055	      0.00088514	     -0.03101361	     -0.00484984	      0.01584536	     -0.01829076	     -0.00966047	      0.00640047	     -0.06564330	     -0.00130325	      0.00541160	     -0.18391870	      0.00001205	     -0.00186690	      0.00047815	      0.00016000	      0.00011608	      0.00004643	      0.00023216	      0.00014859	      0.00044576	      0.00025074	     -0.00135725	      0.00030803	      0.00036964	      0.00246140	      0.00863575	      0.00600748	     -0.00805169	      0.01944086	     -0.01843962	      0.00246140	      0.00863575	      0.00600748	      0.00054234	      0.01802243	     -0.00947012	      0.00390709	      0.00480223	      0.01586691	      0.00000000	      0.00753995	      0.00000000	     -0.00705044	     -0.03258222	     -0.00621566	      0.01746082	     -0.00065417	     -0.00606923	     -0.00087609	      0.01468494	     -0.00600748	      0.00241968	      0.02119304	     -0.01752181	     -0.00588232	      0.01272417	     -0.00538170	     -0.01226527	      0.02686677	     -0.03007910	     -0.02302866	      0.01422604	     -0.00721732	     -0.01526900	      0.03103863	     -0.03758845
      1.16666667	     -0.31558521	      0.13366700	     -0.13366700	      0.31558521	     -0.06389959	      0.51641397	      0.23212453	     -0.23212453	     -0.51641397	      0.06389959	    100.00384904	     74.71760355	     -1.74539643	    -29.06551255	     29.71542921	     17.48611851	      0.00286444	     -1.09645419	      0.00388157	     -0.54822709	     -9.88915647	      0.88593922	    -22.48418296	    -17.97619651	     38.05994255	     13.91400096	      6.99151949	    -34.78178991	     58.25447132	      6.16216919	     85.65807005	     62.43589658	     53.11792503	     -8.78479710	     88.06692038	     39.49262095	     -8.15912167	    -13.37534542	    -12.70666724	      5.03164662	      0.00088289	     -0.03100584	     -0.00484859	      0.01595255	     -0.01827234	     -0.00951808	      0.00625797	     -0.06573545	     -0.00145860	      0.00559179	     -0.18389144	     -0.00003574	     -0.00209833	      0.00054262	      0.00017069	      0.00011504	      0.00004602	      0.00023008	      0.00014725	      0.00044175	      0.00024849	     -0.00130825	      0.00030156	      0.00036187	      0.00244908	      0.00859253	      0.00597741	     -0.00801139	      0.01934357	     -0.01834734	      0.00244908	      0.00859253	      0.00597741	      0.00053963	      0.01793224	     -0.00942273	      0.00389269	      0.00477820	      0.01583099	      0.00000000	      0.00746418	      0.00000000	     -0.00701516	     -0.03241917	     -0.00615273	      0.01845792	     -0.00072533	     -0.00704915	     -0.00087171	      0.01461145	     -0.00597741	      0.00240757	      0.02108699	     -0.01743412	     -0.00585288	      0.01266049	     -0.00535477	     -0.01220389	      0.02673232	     -0.02992858	     -0.02291342	      0.01415485	     -0.00718120	     -0.01519259	      0.03088330	     -0.03740034
      1.20000000	     -0.31576031	      0.13374117	     -0.13374117	      0.31576031	     -0.06393504	      0.51670051	      0.23225332	     -0.23225332	     -0.51670051	      0.06393504	     99.95212772	     74.75906099	     -1.74449372	    -29.09285466	     29.69927739	     17.48486725	      0.00295861	     -1.09650801	      0.00400809	     -0.54825401	     -9.88908364	      0.88565034	    -22.48442802	    -17.97611271	     38.05903886	     13.91276585	      6.99208181	    -34.78154823	     58.25235402	      6.16209708	     85.65795978	     62.43587153	     53.11611886	     -8.78484898	     88.06786895	     39.49263158	     -8.16517987	    -13.37533001	    -12.70871274	      5.03148607	      0.00088236	     -0.03100399	     -0.00484829	      0.01595248	     -0.01826795	     -0.00951817	      0.00625807	     -0.06573539	     -0.00145850	      0.00559167	     -0.18389146	     -0.00003571	     -0.00209818	      0.00054258	      0.00017068	      0.00011499	      0.00004600	      0.00022998	      0.00014718	      0.00044155	      0.00024837	     -0.00130824	      0.00030156	      0.00036187	      0.00245044	      0.00859730	      0.00598073	     -0.00801584	      0.01935431	     -0.01835752	      0.00245044	      0.00859730	      0.00598073	      0.00053993	      0.01794219	     -0.00942796	      0.00389428	      0.00478085	      0.01583497	      0.00000000	      0.00747252	      0.00000000	     -0.00701905	     -0.03243715	     -0.00615966	      0.01847037	     -0.00072625	     -0.00706216	     -0.00087219	      0.01461956	     -0.00598073	      0.00240891	      0.02109869	     -0.01744380	     -0.00585613	      0.01266752	     -0.00535774	     -0.01221066	      0.02674715	     -0.02994518	     -0.02292613	      0.01416270	     -0.00718518	     -0.01520102	      0.03090044	     -0.03742109
      1.23333333	     -0.31354239	      0.13280176	     -0.13280176	      0.31354239	     -0.06348596	      0.51307116	      0.23062196	     -0.23062196	     -0.51307116	      0.06348596	    100.63633683	     74.23394729	     -1.75643542	    -31.93788201	     29.77443192	     20.86880642	      0.02320686	     -1.08824046	      0.03105462	     -0.54412023	     -9.25595469	      1.20236726	    -23.21407668	    -17.51358715	     39.08229998	     13.82689411	      7.36778076	    -34.46444766	     58.43160334	      6.29229381	     85.48782983	     62.31179032	     53.18677315	     -8.75154359	     88.33497840	     38.97957418	     -7.65692842	    -13.41384425	    -11.95878260	      5.01496828	      0.00088485	     -0.03101260	     -0.00484968	      0.01612000	     -0.01828837	     -0.00925573	      0.00600803	     -0.06589706	     -0.00173109	      0.00591061	     -0.18384108	     -0.00011280	     -0.00250425	      0.00065849	      0.00018458	      0.00012166	      0.00004866	      0.00024331	      0.00015572	      0.00046716	      0.00026278	     -0.00114391	      0.00027900	      0.00033479	      0.00243323	      0.00853691	      0.00593872	     -0.00795954	      0.01921836	     -0.01822857	      0.00243323	      0.00853691	      0.00593872	      0.00053613	      0.01781616	     -0.00936173	      0.00387408	      0.00474727	      0.01578426	      0.00000000	      0.00736724	      0.00000000	     -0.00696975	     -0.03220931	     -0.00607221	      0.01971197	     -0.00082376	     -0.00846480	     -0.00086606	      0.01451687	     -0.00593872	      0.00239198	      0.02095049	     -0.01732127	     -0.00581500	      0.01257854	     -0.00532010	     -0.01212489	      0.02655928	     -0.02973485	     -0.02276510	      0.01406322	     -0.00713471	     -0.01509425	      0.03068339	     -0.03715825
      1.26666667	     -0.31321757	      0.13266418	     -0.13266418	      0.31321757	     -0.06342019	      0.51253964	      0.23038304	     -0.23038304	     -0.51253964	      0.06342019	    100.73870951	     74.15704386	     -1.75822217	    -32.39754339	     29.79357552	     22.04057157	      0.04889161	     -1.08602995	      0.06439625	     -0.54301498	     -8.84017456	      1.20922985	    -23.18805052	    -17.39969528	     39.42357452	     13.74910027	      7.96538650	    -33.81019228	     58.47478646	      6.43128020	     85.37802465	     61.92055221	     53.11889513	     -8.56329422	     88.22441793	     38.64025985	     -7.13289056	    -13.44540573	    -11.60932762	      5.01229436	      0.00088548	     -0.03101480	     -0.00485003	      0.01617191	     -0.01829357	     -0.00916111	      0.00592145	     -0.06595305	     -0.00182549	      0.00602188	     -0.18382287	     -0.00013748	     -0.00264486	      0.00069945	      0.00018795	      0.00012342	      0.00004937	      0.00024684	      0.00015798	      0.00047393	      0.00026659	     -0.00104340	      0.00026442	      0.00031730	      0.00243071	      0.00852807	      0.00593257	     -0.00795129	      0.01919845	     -0.01820969	      0.00243071	      0.00852807	      0.00593257	      0.00053558	      0.01779771	     -0.00935204	      0.00387111	      0.00474235	      0.01577678	      0.00000000	      0.00735188	      0.00000000	     -0.00696253	     -0.03217594	     -0.00605946	      0.01990240	     -0.00083972	     -0.00870034	     -0.00086517	      0.01450183	     -0.00593257	      0.00238951	      0.02092878	     -0.01730332	     -0.00580897	      0.01256551	     -0.00531459	     -0.01211233	      0.02653176	     -0.02970404	     -0.02274151	      0.01404865	     -0.00712732	     -0.01507861	      0.03065160	     -0.03711975
